<svg xmlns="http://www.w3.org/2000/svg" fill="none" viewBox="0 0 931.000000 268.000000">
<g transform="translate(0.000000,268.000000) scale(0.100000,-0.100000)"
fill="#000000" stroke="none">
<path d="M1025 2094 c-11 -2 -47 -10 -80 -16 -59 -11 -140 -43 -221 -85 -87
-46 -245 -216 -298 -320 l-16 -32 67 30 c155 70 311 97 593 105 235 6 245 8
280 67 16 26 20 50 20 123 l0 92 -67 17 c-66 17 -237 29 -278 19z"/>
<path d="M1500 1937 c0 -87 -26 -156 -76 -204 -74 -72 -88 -75 -369 -83 -203
-7 -266 -12 -334 -29 -124 -32 -223 -74 -345 -147 -13 -8 -20 -29 -25 -75 -10
-100 -8 -103 52 -62 61 41 164 94 239 123 114 44 176 52 433 60 225 6 256 9
307 29 118 46 222 180 235 302 l5 54 -49 36 c-76 56 -73 57 -73 -4z"/>
<path d="M2497 1933 c-4 -3 -7 -46 -7 -95 l0 -88 105 0 105 0 0 -510 0 -510
95 0 95 0 0 510 0 510 100 0 101 0 -3 93 -3 92 -291 3 c-160 1 -293 -1 -297
-5z"/>
<path d="M3167 1933 c-4 -3 -7 -276 -7 -605 l0 -598 275 0 275 0 0 95 0 95
-180 0 -180 0 0 160 0 160 135 0 135 0 0 90 0 90 -135 0 -135 0 0 165 0 165
180 0 180 0 0 95 0 95 -268 0 c-148 0 -272 -3 -275 -7z"/>
<path d="M4049 1929 c-93 -14 -177 -78 -221 -168 -22 -45 -23 -54 -26 -412 -3
-355 -2 -368 19 -425 28 -76 104 -154 174 -177 113 -39 232 -11 314 74 57 60
81 129 81 234 l0 85 -89 0 -88 0 -5 -82 c-5 -76 -7 -83 -37 -110 -44 -39 -99
-39 -143 1 l-33 29 -3 338 c-2 243 1 346 9 366 32 78 170 76 198 -3 6 -18 11
-61 11 -95 l0 -64 90 0 90 0 0 85 c0 107 -26 181 -84 240 -72 71 -158 100
-257 84z"/>
<path d="M4517 1933 c-4 -3 -7 -275 -7 -604 l0 -597 73 -4 c39 -2 82 -1 95 1
l22 3 0 254 0 254 105 0 105 0 0 -255 0 -255 65 -1 c36 -1 77 -2 93 -3 l27 -1
3 608 2 608 -92 -3 c-85 -3 -93 -5 -94 -23 -1 -11 -2 -127 -3 -258 l-1 -238
-102 3 -103 3 -3 258 -2 257 -89 0 c-48 0 -91 -3 -94 -7z"/>
<path d="M5461 1930 c-91 -19 -178 -95 -214 -188 -22 -56 -23 -195 -1 -259 9
-26 27 -65 42 -86 28 -42 117 -110 197 -150 63 -31 121 -89 136 -134 6 -20 9
-58 6 -86 -8 -88 -82 -131 -157 -92 -40 20 -50 43 -50 109 l0 56 -95 0 -95 0
0 -65 c0 -212 196 -356 393 -289 60 20 140 95 168 158 40 90 35 236 -11 327
-24 47 -112 126 -181 163 -142 76 -179 122 -179 224 0 70 21 104 74 122 29 9
41 8 74 -9 45 -23 62 -58 62 -127 l0 -44 96 0 97 0 -6 78 c-13 198 -173 329
-356 292z"/>
<path d="M5867 1933 c-4 -3 -7 -46 -7 -95 l0 -88 100 0 100 0 0 -510 0 -510
95 0 95 0 2 508 3 507 98 3 97 3 0 94 0 95 -288 0 c-159 0 -292 -3 -295 -7z"/>
<path d="M6757 1929 c-90 -14 -177 -84 -221 -178 -20 -44 -21 -61 -21 -421 l0
-375 28 -57 c96 -196 362 -227 496 -58 68 86 73 124 69 520 -3 326 -4 348 -24
391 -60 129 -187 198 -327 178z m113 -204 c47 -24 51 -60 48 -421 l-3 -326
-33 -29 c-45 -40 -99 -40 -144 0 l-33 29 -3 329 c-2 218 0 341 8 365 18 62 95
87 160 53z"/>
<path d="M7250 1336 l0 -606 95 0 95 0 0 255 c0 210 2 255 14 255 21 0 28 -13
97 -185 70 -175 101 -224 172 -272 70 -47 119 -53 417 -53 l270 0 0 95 0 95
-240 0 c-266 0 -327 8 -366 48 -16 17 -45 80 -75 162 l-49 135 22 15 c41 26
90 84 111 130 30 63 36 237 12 313 -25 79 -79 146 -148 181 -56 29 -62 30
-242 34 l-185 5 0 -607z m349 389 c36 -18 51 -60 51 -140 0 -124 -28 -155
-140 -155 l-70 0 0 155 0 155 65 0 c39 0 78 -6 94 -15z"/>
<path d="M7957 1933 c-4 -3 -7 -210 -7 -460 l0 -453 230 0 230 0 0 95 0 94
-132 3 -133 3 0 80 0 80 108 3 107 3 0 94 0 94 -107 3 -108 3 -3 83 -3 82 136
0 135 0 0 100 0 100 -223 0 c-123 0 -227 -3 -230 -7z"/>
<path d="M1698 1692 c-46 -97 -127 -188 -205 -229 -108 -57 -148 -65 -388 -69
-242 -5 -333 -18 -455 -65 -82 -31 -208 -110 -253 -156 -27 -29 -27 -29 -12
-79 25 -83 26 -83 89 -28 59 53 184 131 254 157 82 32 208 47 402 47 210 0
286 13 408 71 80 38 212 165 254 244 l27 51 -21 41 c-12 23 -30 53 -42 67
l-21 26 -37 -78z"/>
<path d="M1811 1398 c-64 -70 -148 -132 -246 -182 -115 -58 -171 -67 -450 -75
-236 -7 -254 -9 -330 -35 -44 -15 -105 -43 -135 -63 -63 -42 -160 -131 -160
-147 0 -6 17 -31 39 -56 l38 -44 58 62 c39 42 77 72 119 92 104 49 170 60 377
60 214 0 324 15 438 61 93 37 202 104 270 165 l51 46 -1 66 c-2 115 -6 118
-68 50z"/>
<path d="M1795 1049 c-57 -38 -145 -79 -225 -105 -141 -44 -218 -54 -424 -54
-209 0 -276 -11 -354 -56 -46 -27 -122 -101 -122 -119 0 -17 105 -76 193 -108
71 -26 100 -30 217 -35 116 -4 148 -1 220 17 165 41 316 142 419 277 50 67
118 190 110 199 -3 2 -18 -5 -34 -16z"/>
</g>
</svg>
